PathFileType	3	(X/Y/Z)	F:\ViconData\AntennenMessung\Messung1\Session1\ID10.trc
DataRate	CameraRate	NumFrames	NumMarkers	Units	OrigDataRate	OrigDataStartFrame	OrigNumFrames
120.0	120.0	5	70	mm	120.0	157	1251	
Frame#	Time	Ashort			Along			Atop			A4			Bshort			Blong			Btop			B4			Cshort			Clong			Ctop			C4			Dshort			Dlong			Dtop			D4			Eshort			Elong			Etop			E4			Fshort			Flong			Ftop			F4			Gshort			Glong			Gtop			G4			Hshort			Hlong			Htop			H4			I1			I2			I3			I4			I5			WandAshort			WandAlong			WandAtop			WandA4			WandA15			WandBshort			WandB4			WandB5			WandBtop			WandBlong			WandCshort			WandClong			WandCtop			WandC4			WandC5			Acenter			Aantenna			Bcenter			Bantenna			Ccenter			Cantenna			Dcenter			Dantenna			Ecenter			Eantenna			Fcenter			Fantenna			Gcenter			Gantenna			Hcenter			Hantenna			Icenter			Iantenna			
		X1	Y1	Z1	X2	Y2	Z2	X3	Y3	Z3	X4	Y4	Z4	X5	Y5	Z5	X6	Y6	Z6	X7	Y7	Z7	X8	Y8	Z8	X9	Y9	Z9	X10	Y10	Z10	X11	Y11	Z11	X12	Y12	Z12	X13	Y13	Z13	X14	Y14	Z14	X15	Y15	Z15	X16	Y16	Z16	X17	Y17	Z17	X18	Y18	Z18	X19	Y19	Z19	X20	Y20	Z20	X21	Y21	Z21	X22	Y22	Z22	X23	Y23	Z23	X24	Y24	Z24	X25	Y25	Z25	X26	Y26	Z26	X27	Y27	Z27	X28	Y28	Z28	X29	Y29	Z29	X30	Y30	Z30	X31	Y31	Z31	X32	Y32	Z32	X33	Y33	Z33	X34	Y34	Z34	X35	Y35	Z35	X36	Y36	Z36	X37	Y37	Z37	X38	Y38	Z38	X39	Y39	Z39	X40	Y40	Z40	X41	Y41	Z41	X42	Y42	Z42	X43	Y43	Z43	X44	Y44	Z44	X45	Y45	Z45	X46	Y46	Z46	X47	Y47	Z47	X48	Y48	Z48	X49	Y49	Z49	X50	Y50	Z50	X51	Y51	Z51	X52	Y52	Z52	X53	Y53	Z53	X54	Y54	Z54	X55	Y55	Z55	X56	Y56	Z56	X57	Y57	Z57	X58	Y58	Z58	X59	Y59	Z59	X60	Y60	Z60	X61	Y61	Z61	X62	Y62	Z62	X63	Y63	Z63	X64	Y64	Z64	X65	Y65	Z65	X66	Y66	Z66	X67	Y67	Z67	X68	Y68	Z68	X69	Y69	Z69	X70	Y70	Z70	
157	1.3	-1038.2308	214.59325	-1644.2225	-1109.2926	203.96306	-1599.3959	-1063.9023	172.6922	-1625.3827	-1054.2186	262.22986	-1634.9506	-1352.9211	235.57661	1003.8591	-1281.3792	227.2227	1052.4054	-1322.8169	194.16841	1020.8281	-1284.7657	287.85843	1052.8634	814.0376	187.70847	1209.6398	892.22894	178.60901	1179.2668	844.26178	145.76816	1198.174	860.63037	292.74997	1167.3738	1115.7371	209.79518	-1401.7163	1056.2438	194.15236	-1460.3141	1095.0723	162.32439	-1423.8707	1069.8544	238.67714	-1425.8636	-1204.515	1685.9517	-1563.2289	-1129.1458	1688.2933	-1606.0807	-1173.1351	1724.4353	-1581.9614	-1134.0363	1581.0496	-1603.8743	-1239.7963	1699.4176	1119.5099	-1309.3728	1698.8461	1071.9021	-1270.5015	1736.4425	1096.9001	-1245.6489	1592.9017	1110.6964	988.89355	1664.2928	1162.3097	957.39795	1700.4504	1183.7908	922.74646	1662.0706	1214.9457	939.80084	1659.3551	1159.9525	999.04028	1668.5621	-1579.4601	1058.8336	1670.1611	-1518.6378	1024.9755	1708.0316	-1551.1233	1059.2311	1672.1525	-1585.4568	31.486168	196.53763	-944.5224	115.51099	203.98776	-932.34973	72.617828	161.25545	-939.83014	72.661674	200.6553	-971.19965	61.715538	198.78404	-891.94897																																														-1069.0862	209.97755	-1624.7584	-1074.4559	248.60069	-1624.1119	-1321.4073	231.89676	1025.2433	-1319.9611	270.60577	1029.7732	848.01013	183.75493	1196.4434	851.836	222.52661	1194.6769	1088.7825	202.70787	-1428.2651	1082.8148	241.02243	-1432.4346	-1171.8724	1686.9658	-1581.788	-1170.559	1647.9883	-1581.6074	-1271.0386	1699.1609	1098.1323	-1271.5999	1660.1862	1099.4207	953.14398	1705.334	1186.6921	972.91882	1733.4786	1168.312	1026.4619	1669.2954	-1551.5664	1027.9575	1630.3267	-1552.0122	69.084602	199.87132	-939.07544	65.531738	238.70174	-938.31665
158	1.3083333	-1038.2866	214.73268	-1644.1979	-1109.3187	203.97397	-1599.3657	-1063.8311	172.69647	-1625.4219	-1054.2037	262.25064	-1634.9681	-1352.9069	235.42415	1003.7957	-1281.4377	227.15858	1052.4612	-1322.9479	194.10992	1020.857	-1284.6278	287.96097	1052.7009	813.98083	187.64534	1209.6328	892.2298	178.63681	1179.2032	844.47931	145.54253	1198.2317	860.61993	292.79605	1167.3684	1115.748	209.80948	-1401.7294	1056.2318	194.16965	-1460.3073	1095.1031	162.50143	-1423.9915	1069.8512	238.7271	-1425.8669	-1204.5306	1685.9663	-1563.2386	-1129.1636	1688.2975	-1606.0729	-1173.1349	1724.4424	-1581.958	-1133.7743	1581.0249	-1603.7177	-1239.7786	1699.3778	1119.4993	-1309.3478	1698.8098	1071.9001	-1270.4902	1736.426	1096.8928	-1245.6466	1592.9698	1110.7035	988.84662	1664.2365	1162.3203	957.42291	1700.4227	1183.7991	922.67694	1662.1211	1214.9783	939.82928	1659.4008	1159.9442	999.05042	1668.5503	-1579.443	1058.7106	1669.9918	-1518.6606	1024.9749	1708.0299	-1551.1154	1059.2283	1672.1456	-1585.4581	31.434406	196.64021	-944.60242	115.55468	203.98965	-932.33771	72.591698	161.19337	-939.71576	72.658134	200.64568	-971.19855	61.698681	198.80598	-891.93207																																														-1069.0768	210.06911	-1624.7644	-1074.4968	248.68466	-1624.0852	-1321.5233	231.79457	1025.1655	-1320.0598	270.51483	1029.5925	848.1413	183.71255	1196.3483	851.86133	222.48755	1194.4351	1088.7638	202.71848	-1428.2881	1082.7249	241.03006	-1432.3812	-1171.8826	1686.9761	-1581.7938	-1170.5798	1647.9982	-1581.6228	-1271.0254	1699.1227	1098.1201	-1271.5845	1660.1477	1099.4022	953.14447	1705.3496	1186.7233	972.96136	1733.4664	1168.3457	1026.3927	1669.2109	-1551.5864	1027.8162	1630.2397	-1552.0593	69.118523	199.93259	-939.10803	65.63636	238.77205	-938.49878
159	1.3166667	-1038.311	214.71901	-1644.1808	-1109.3032	203.97124	-1599.4255	-1063.8871	172.70041	-1625.3579	-1054.2163	262.25415	-1634.9844	-1352.8936	235.60887	1003.7476	-1281.4629	227.21996	1052.3625	-1322.8998	194.11882	1020.8683	-1284.5496	287.97195	1052.7009	814.03589	187.67798	1209.6541	892.26086	178.63536	1179.2032	844.50372	145.54953	1198.2284	860.651	292.73831	1167.4053	1115.7028	209.53549	-1401.5703	1056.2419	194.18155	-1460.3145	1095.1333	162.52469	-1424.0032	1069.8726	238.64915	-1425.8232	-1204.5126	1685.9534	-1563.228	-1129.178	1688.4194	-1606.5828	-1173.13	1724.4364	-1581.9672	-1134.0271	1581.0492	-1603.8782	-1239.7944	1699.4142	1119.5031	-1309.1101	1698.4287	1071.749	-1270.4982	1736.452	1096.8943	-1245.6731	1593.2164	1110.8441	988.84009	1664.2329	1162.2994	957.31067	1700.4622	1183.7776	922.91199	1662.0748	1214.981	939.81726	1659.3658	1159.9297	999.05463	1668.5284	-1579.4231	1058.8396	1670.1658	-1518.6466	1024.9679	1708.0292	-1551.1177	1059.2306	1672.1471	-1585.4615	31.579685	196.39438	-944.50507	115.53649	204.01686	-932.34558	72.724144	161.7872	-940.2406	72.659142	200.64891	-971.1972	61.697197	198.83694	-891.92578																																														-1069.151	210.05	-1624.7383	-1074.5931	248.66313	-1624.0979	-1321.3982	231.90999	1025.1831	-1319.8596	270.62808	1029.6036	848.18951	183.72987	1196.3589	851.93268	222.50337	1194.4606	1088.8409	202.59927	-1428.1082	1082.8221	240.93144	-1432.0349	-1171.9165	1687.0203	-1581.9868	-1170.6522	1648.0408	-1582.0073	-1270.8169	1698.973	1098.1304	-1271.1486	1659.9957	1099.416	953.16418	1705.2266	1186.6022	972.87567	1733.3431	1168.1112	1026.4708	1669.2792	-1551.552	1027.9822	1630.3109	-1551.989	69.103355	199.80118	-939.07043	65.407135	238.60724	-937.87598
160	1.325	-1038.3019	214.68172	-1644.1824	-1109.2965	203.97647	-1599.411	-1063.8236	172.70061	-1625.4259	-1054.2307	262.23318	-1634.959	-1353.0009	235.10301	1003.7978	-1281.4347	227.05943	1052.3616	-1322.8326	194.14615	1020.8317	-1284.5171	287.97049	1052.6506	814.00916	187.64709	1209.641	892.62903	179.28201	1178.6355	844.52356	145.48917	1198.3092	860.54553	292.8848	1167.4025	1115.7493	209.81274	-1401.7218	1056.2456	194.16788	-1460.3353	1095.0989	162.3398	-1423.8678	1069.828	238.68095	-1425.8768	-1204.5198	1685.969	-1563.2584	-1129.1396	1688.2865	-1606.0863	-1173.139	1724.4463	-1581.9764	-1133.7612	1581.0327	-1603.7349	-1239.7567	1699.3613	1119.4854	-1309.347	1698.8065	1071.8911	-1270.5082	1736.4528	1096.9093	-1245.6384	1592.9509	1110.7134	988.83734	1664.2354	1162.3085	957.28296	1700.4786	1183.7388	922.77411	1662.1519	1215.0166	939.79248	1659.3428	1159.9795	999.04694	1668.5416	-1579.423	1058.8378	1670.1624	-1518.639	1024.9683	1708.0409	-1551.1106	1059.2428	1672.1609	-1585.4612	31.623087	196.38213	-944.51685	115.52888	203.96445	-932.30597	72.621078	161.26244	-939.81323	72.672417	200.66359	-971.21533	61.668686	198.81227	-891.89276																																														-1069.0532	210.04471	-1624.7894	-1074.4613	248.66232	-1624.1313	-1321.55	231.56815	1025.1398	-1320.223	270.28979	1029.5977	847.83429	184.04811	1196.3011	851.16614	222.85295	1194.2804	1088.807	202.72902	-1428.2609	1082.8383	241.04361	-1432.4285	-1171.8864	1686.9723	-1581.7993	-1170.5833	1647.9944	-1581.6151	-1271.0249	1699.1119	1098.1002	-1271.5645	1660.1355	1099.3434	953.06464	1705.3237	1186.6035	972.78461	1733.4299	1168.1058	1026.465	1669.2848	-1551.5496	1027.9697	1630.3164	-1551.9907	69.034088	199.76283	-939.07239	65.416878	238.58754	-938.32526
161	1.3333333	-1038.283	214.72581	-1644.1787	-1109.3167	203.90161	-1599.3705	-1063.8184	172.68503	-1625.423	-1054.1887	262.25363	-1634.9666	-1352.978	235.2724	1003.862	-1281.3973	227.18547	1052.3783	-1322.8292	194.13721	1020.8331	-1284.5758	287.90573	1052.7559	814.03772	187.61285	1209.5707	892.6864	179.41333	1178.8691	844.51538	145.47852	1198.2927	860.64752	292.77805	1167.3781	1115.7388	209.78244	-1401.7156	1056.2152	194.15968	-1460.3444	1095.0366	162.27396	-1423.8893	1069.8455	238.68251	-1425.8436	-1204.5106	1685.9598	-1563.2417	-1129.1519	1688.276	-1606.0708	-1173.1376	1724.4607	-1581.9711	-1134.0415	1581.0405	-1603.8597	-1239.7894	1699.4199	1119.5052	-1309.3324	1698.7997	1071.8915	-1270.6011	1736.5934	1096.9525	-1245.5663	1592.9177	1110.7277	988.862	1664.2506	1162.3094	957.04584	1700.6487	1183.7489	922.60632	1662.0901	1214.9724	939.81409	1659.3625	1159.9333	999.0647	1668.5388	-1579.4205	1058.7184	1670.0001	-1518.6624	1024.9646	1708.0358	-1551.113	1059.2219	1672.1447	-1585.458	31.493273	196.42943	-944.37793	115.52486	203.9715	-932.33337	72.738403	161.78003	-940.23633	72.665398	200.65271	-971.19452	61.660301	198.84341	-891.90424																																														-1069.0842	210.03227	-1624.749	-1074.5286	248.6441	-1624.0525	-1321.5283	231.71931	1025.1781	-1320.1879	270.43839	1029.6545	847.79889	184.09308	1196.3915	851.0993	222.90614	1194.4805	1088.7596	202.70142	-1428.2891	1082.8102	241.01869	-1432.4592	-1171.8801	1686.9628	-1581.7866	-1170.5732	1647.9851	-1581.5951	-1271.0527	1699.1411	1098.1002	-1271.5228	1660.1622	1099.2947	952.93121	1705.3557	1186.5214	972.63971	1733.4747	1168.0309	1026.3953	1669.2081	-1551.5839	1027.8313	1630.2374	-1552.0565	69.145302	199.80879	-938.98108	65.47876	238.61493	-937.7002
